<?xml version="1.0" encoding="utf-8"?>
<!DOCTYPE svg PUBLIC "-//W3C//DTD SVG 1.1//EN" "http://www.w3.org/Graphics/SVG/1.1/DTD/svg11.dtd">
<svg version="1.1" id="Layer_1" xmlns="http://www.w3.org/2000/svg" xmlns:xlink="http://www.w3.org/1999/xlink" x="0px" y="0px"
width="444px" height="444px" viewBox="0 0 444 444" enable-background="new 0 0 444 444" xml:space="preserve">
<rect x="0" y="0" width="444" height="444" fill="rgb(255,255,255)" /><g transform="translate(24,24)"><g transform="translate(96,0) scale(0.12,0.12)"><g transform="" style="fill: rgb(0, 0, 0);">
<polygon points="0,50 50,100 100,50 50,0"/>
</g></g><g transform="translate(108,0) scale(0.12,0.12)"><g transform="" style="fill: rgb(0, 0, 0);">
<polygon points="0,50 50,100 100,50 50,0"/>
</g></g><g transform="translate(120,0) scale(0.12,0.12)"><g transform="" style="fill: rgb(0, 0, 0);">
<polygon points="0,50 50,100 100,50 50,0"/>
</g></g><g transform="translate(132,0) scale(0.12,0.12)"><g transform="" style="fill: rgb(0, 0, 0);">
<polygon points="0,50 50,100 100,50 50,0"/>
</g></g><g transform="translate(144,0) scale(0.12,0.12)"><g transform="" style="fill: rgb(0, 0, 0);">
<polygon points="0,50 50,100 100,50 50,0"/>
</g></g><g transform="translate(180,0) scale(0.12,0.12)"><g transform="" style="fill: rgb(0, 0, 0);">
<polygon points="0,50 50,100 100,50 50,0"/>
</g></g><g transform="translate(204,0) scale(0.12,0.12)"><g transform="" style="fill: rgb(0, 0, 0);">
<polygon points="0,50 50,100 100,50 50,0"/>
</g></g><g transform="translate(216,0) scale(0.12,0.12)"><g transform="" style="fill: rgb(0, 0, 0);">
<polygon points="0,50 50,100 100,50 50,0"/>
</g></g><g transform="translate(228,0) scale(0.12,0.12)"><g transform="" style="fill: rgb(0, 0, 0);">
<polygon points="0,50 50,100 100,50 50,0"/>
</g></g><g transform="translate(264,0) scale(0.12,0.12)"><g transform="" style="fill: rgb(0, 0, 0);">
<polygon points="0,50 50,100 100,50 50,0"/>
</g></g><g transform="translate(276,0) scale(0.12,0.12)"><g transform="" style="fill: rgb(0, 0, 0);">
<polygon points="0,50 50,100 100,50 50,0"/>
</g></g><g transform="translate(288,0) scale(0.12,0.12)"><g transform="" style="fill: rgb(0, 0, 0);">
<polygon points="0,50 50,100 100,50 50,0"/>
</g></g><g transform="translate(96,12) scale(0.12,0.12)"><g transform="" style="fill: rgb(0, 0, 0);">
<polygon points="0,50 50,100 100,50 50,0"/>
</g></g><g transform="translate(120,12) scale(0.12,0.12)"><g transform="" style="fill: rgb(0, 0, 0);">
<polygon points="0,50 50,100 100,50 50,0"/>
</g></g><g transform="translate(144,12) scale(0.12,0.12)"><g transform="" style="fill: rgb(0, 0, 0);">
<polygon points="0,50 50,100 100,50 50,0"/>
</g></g><g transform="translate(156,12) scale(0.12,0.12)"><g transform="" style="fill: rgb(0, 0, 0);">
<polygon points="0,50 50,100 100,50 50,0"/>
</g></g><g transform="translate(168,12) scale(0.12,0.12)"><g transform="" style="fill: rgb(0, 0, 0);">
<polygon points="0,50 50,100 100,50 50,0"/>
</g></g><g transform="translate(180,12) scale(0.12,0.12)"><g transform="" style="fill: rgb(0, 0, 0);">
<polygon points="0,50 50,100 100,50 50,0"/>
</g></g><g transform="translate(204,12) scale(0.12,0.12)"><g transform="" style="fill: rgb(0, 0, 0);">
<polygon points="0,50 50,100 100,50 50,0"/>
</g></g><g transform="translate(216,12) scale(0.12,0.12)"><g transform="" style="fill: rgb(0, 0, 0);">
<polygon points="0,50 50,100 100,50 50,0"/>
</g></g><g transform="translate(264,12) scale(0.12,0.12)"><g transform="" style="fill: rgb(0, 0, 0);">
<polygon points="0,50 50,100 100,50 50,0"/>
</g></g><g transform="translate(96,24) scale(0.12,0.12)"><g transform="" style="fill: rgb(0, 0, 0);">
<polygon points="0,50 50,100 100,50 50,0"/>
</g></g><g transform="translate(120,24) scale(0.12,0.12)"><g transform="" style="fill: rgb(0, 0, 0);">
<polygon points="0,50 50,100 100,50 50,0"/>
</g></g><g transform="translate(168,24) scale(0.12,0.12)"><g transform="" style="fill: rgb(0, 0, 0);">
<polygon points="0,50 50,100 100,50 50,0"/>
</g></g><g transform="translate(252,24) scale(0.12,0.12)"><g transform="" style="fill: rgb(0, 0, 0);">
<polygon points="0,50 50,100 100,50 50,0"/>
</g></g><g transform="translate(276,24) scale(0.12,0.12)"><g transform="" style="fill: rgb(0, 0, 0);">
<polygon points="0,50 50,100 100,50 50,0"/>
</g></g><g transform="translate(108,36) scale(0.12,0.12)"><g transform="" style="fill: rgb(0, 0, 0);">
<polygon points="0,50 50,100 100,50 50,0"/>
</g></g><g transform="translate(144,36) scale(0.12,0.12)"><g transform="" style="fill: rgb(0, 0, 0);">
<polygon points="0,50 50,100 100,50 50,0"/>
</g></g><g transform="translate(192,36) scale(0.12,0.12)"><g transform="" style="fill: rgb(0, 0, 0);">
<polygon points="0,50 50,100 100,50 50,0"/>
</g></g><g transform="translate(204,36) scale(0.12,0.12)"><g transform="" style="fill: rgb(0, 0, 0);">
<polygon points="0,50 50,100 100,50 50,0"/>
</g></g><g transform="translate(216,36) scale(0.12,0.12)"><g transform="" style="fill: rgb(0, 0, 0);">
<polygon points="0,50 50,100 100,50 50,0"/>
</g></g><g transform="translate(228,36) scale(0.12,0.12)"><g transform="" style="fill: rgb(0, 0, 0);">
<polygon points="0,50 50,100 100,50 50,0"/>
</g></g><g transform="translate(240,36) scale(0.12,0.12)"><g transform="" style="fill: rgb(0, 0, 0);">
<polygon points="0,50 50,100 100,50 50,0"/>
</g></g><g transform="translate(264,36) scale(0.12,0.12)"><g transform="" style="fill: rgb(0, 0, 0);">
<polygon points="0,50 50,100 100,50 50,0"/>
</g></g><g transform="translate(276,36) scale(0.12,0.12)"><g transform="" style="fill: rgb(0, 0, 0);">
<polygon points="0,50 50,100 100,50 50,0"/>
</g></g><g transform="translate(156,48) scale(0.12,0.12)"><g transform="" style="fill: rgb(0, 0, 0);">
<polygon points="0,50 50,100 100,50 50,0"/>
</g></g><g transform="translate(192,48) scale(0.12,0.12)"><g transform="" style="fill: rgb(0, 0, 0);">
<polygon points="0,50 50,100 100,50 50,0"/>
</g></g><g transform="translate(204,48) scale(0.12,0.12)"><g transform="" style="fill: rgb(0, 0, 0);">
<polygon points="0,50 50,100 100,50 50,0"/>
</g></g><g transform="translate(216,48) scale(0.12,0.12)"><g transform="" style="fill: rgb(0, 0, 0);">
<polygon points="0,50 50,100 100,50 50,0"/>
</g></g><g transform="translate(228,48) scale(0.12,0.12)"><g transform="" style="fill: rgb(0, 0, 0);">
<polygon points="0,50 50,100 100,50 50,0"/>
</g></g><g transform="translate(288,48) scale(0.12,0.12)"><g transform="" style="fill: rgb(0, 0, 0);">
<polygon points="0,50 50,100 100,50 50,0"/>
</g></g><g transform="translate(96,60) scale(0.12,0.12)"><g transform="" style="fill: rgb(0, 0, 0);">
<polygon points="0,50 50,100 100,50 50,0"/>
</g></g><g transform="translate(108,60) scale(0.12,0.12)"><g transform="" style="fill: rgb(0, 0, 0);">
<polygon points="0,50 50,100 100,50 50,0"/>
</g></g><g transform="translate(132,60) scale(0.12,0.12)"><g transform="" style="fill: rgb(0, 0, 0);">
<polygon points="0,50 50,100 100,50 50,0"/>
</g></g><g transform="translate(144,60) scale(0.12,0.12)"><g transform="" style="fill: rgb(0, 0, 0);">
<polygon points="0,50 50,100 100,50 50,0"/>
</g></g><g transform="translate(168,60) scale(0.12,0.12)"><g transform="" style="fill: rgb(0, 0, 0);">
<polygon points="0,50 50,100 100,50 50,0"/>
</g></g><g transform="translate(216,60) scale(0.12,0.12)"><g transform="" style="fill: rgb(0, 0, 0);">
<polygon points="0,50 50,100 100,50 50,0"/>
</g></g><g transform="translate(240,60) scale(0.12,0.12)"><g transform="" style="fill: rgb(0, 0, 0);">
<polygon points="0,50 50,100 100,50 50,0"/>
</g></g><g transform="translate(252,60) scale(0.12,0.12)"><g transform="" style="fill: rgb(0, 0, 0);">
<polygon points="0,50 50,100 100,50 50,0"/>
</g></g><g transform="translate(96,72) scale(0.12,0.12)"><g transform="" style="fill: rgb(0, 0, 0);">
<polygon points="0,50 50,100 100,50 50,0"/>
</g></g><g transform="translate(120,72) scale(0.12,0.12)"><g transform="" style="fill: rgb(0, 0, 0);">
<polygon points="0,50 50,100 100,50 50,0"/>
</g></g><g transform="translate(144,72) scale(0.12,0.12)"><g transform="" style="fill: rgb(0, 0, 0);">
<polygon points="0,50 50,100 100,50 50,0"/>
</g></g><g transform="translate(168,72) scale(0.12,0.12)"><g transform="" style="fill: rgb(0, 0, 0);">
<polygon points="0,50 50,100 100,50 50,0"/>
</g></g><g transform="translate(192,72) scale(0.12,0.12)"><g transform="" style="fill: rgb(0, 0, 0);">
<polygon points="0,50 50,100 100,50 50,0"/>
</g></g><g transform="translate(216,72) scale(0.12,0.12)"><g transform="" style="fill: rgb(0, 0, 0);">
<polygon points="0,50 50,100 100,50 50,0"/>
</g></g><g transform="translate(240,72) scale(0.12,0.12)"><g transform="" style="fill: rgb(0, 0, 0);">
<polygon points="0,50 50,100 100,50 50,0"/>
</g></g><g transform="translate(264,72) scale(0.12,0.12)"><g transform="" style="fill: rgb(0, 0, 0);">
<polygon points="0,50 50,100 100,50 50,0"/>
</g></g><g transform="translate(288,72) scale(0.12,0.12)"><g transform="" style="fill: rgb(0, 0, 0);">
<polygon points="0,50 50,100 100,50 50,0"/>
</g></g><g transform="translate(96,84) scale(0.12,0.12)"><g transform="" style="fill: rgb(0, 0, 0);">
<polygon points="0,50 50,100 100,50 50,0"/>
</g></g><g transform="translate(120,84) scale(0.12,0.12)"><g transform="" style="fill: rgb(0, 0, 0);">
<polygon points="0,50 50,100 100,50 50,0"/>
</g></g><g transform="translate(156,84) scale(0.12,0.12)"><g transform="" style="fill: rgb(0, 0, 0);">
<polygon points="0,50 50,100 100,50 50,0"/>
</g></g><g transform="translate(168,84) scale(0.12,0.12)"><g transform="" style="fill: rgb(0, 0, 0);">
<polygon points="0,50 50,100 100,50 50,0"/>
</g></g><g transform="translate(192,84) scale(0.12,0.12)"><g transform="" style="fill: rgb(0, 0, 0);">
<polygon points="0,50 50,100 100,50 50,0"/>
</g></g><g transform="translate(204,84) scale(0.12,0.12)"><g transform="" style="fill: rgb(0, 0, 0);">
<polygon points="0,50 50,100 100,50 50,0"/>
</g></g><g transform="translate(216,84) scale(0.12,0.12)"><g transform="" style="fill: rgb(0, 0, 0);">
<polygon points="0,50 50,100 100,50 50,0"/>
</g></g><g transform="translate(252,84) scale(0.12,0.12)"><g transform="" style="fill: rgb(0, 0, 0);">
<polygon points="0,50 50,100 100,50 50,0"/>
</g></g><g transform="translate(264,84) scale(0.12,0.12)"><g transform="" style="fill: rgb(0, 0, 0);">
<polygon points="0,50 50,100 100,50 50,0"/>
</g></g><g transform="translate(288,84) scale(0.12,0.12)"><g transform="" style="fill: rgb(0, 0, 0);">
<polygon points="0,50 50,100 100,50 50,0"/>
</g></g><g transform="translate(24,96) scale(0.12,0.12)"><g transform="" style="fill: rgb(0, 0, 0);">
<polygon points="0,50 50,100 100,50 50,0"/>
</g></g><g transform="translate(36,96) scale(0.12,0.12)"><g transform="" style="fill: rgb(0, 0, 0);">
<polygon points="0,50 50,100 100,50 50,0"/>
</g></g><g transform="translate(48,96) scale(0.12,0.12)"><g transform="" style="fill: rgb(0, 0, 0);">
<polygon points="0,50 50,100 100,50 50,0"/>
</g></g><g transform="translate(72,96) scale(0.12,0.12)"><g transform="" style="fill: rgb(0, 0, 0);">
<polygon points="0,50 50,100 100,50 50,0"/>
</g></g><g transform="translate(96,96) scale(0.12,0.12)"><g transform="" style="fill: rgb(0, 0, 0);">
<polygon points="0,50 50,100 100,50 50,0"/>
</g></g><g transform="translate(132,96) scale(0.12,0.12)"><g transform="" style="fill: rgb(0, 0, 0);">
<polygon points="0,50 50,100 100,50 50,0"/>
</g></g><g transform="translate(144,96) scale(0.12,0.12)"><g transform="" style="fill: rgb(0, 0, 0);">
<polygon points="0,50 50,100 100,50 50,0"/>
</g></g><g transform="translate(168,96) scale(0.12,0.12)"><g transform="" style="fill: rgb(0, 0, 0);">
<polygon points="0,50 50,100 100,50 50,0"/>
</g></g><g transform="translate(240,96) scale(0.12,0.12)"><g transform="" style="fill: rgb(0, 0, 0);">
<polygon points="0,50 50,100 100,50 50,0"/>
</g></g><g transform="translate(300,96) scale(0.12,0.12)"><g transform="" style="fill: rgb(0, 0, 0);">
<polygon points="0,50 50,100 100,50 50,0"/>
</g></g><g transform="translate(312,96) scale(0.12,0.12)"><g transform="" style="fill: rgb(0, 0, 0);">
<polygon points="0,50 50,100 100,50 50,0"/>
</g></g><g transform="translate(324,96) scale(0.12,0.12)"><g transform="" style="fill: rgb(0, 0, 0);">
<polygon points="0,50 50,100 100,50 50,0"/>
</g></g><g transform="translate(360,96) scale(0.12,0.12)"><g transform="" style="fill: rgb(0, 0, 0);">
<polygon points="0,50 50,100 100,50 50,0"/>
</g></g><g transform="translate(372,96) scale(0.12,0.12)"><g transform="" style="fill: rgb(0, 0, 0);">
<polygon points="0,50 50,100 100,50 50,0"/>
</g></g><g transform="translate(384,96) scale(0.12,0.12)"><g transform="" style="fill: rgb(0, 0, 0);">
<polygon points="0,50 50,100 100,50 50,0"/>
</g></g><g transform="translate(0,108) scale(0.12,0.12)"><g transform="" style="fill: rgb(0, 0, 0);">
<polygon points="0,50 50,100 100,50 50,0"/>
</g></g><g transform="translate(12,108) scale(0.12,0.12)"><g transform="" style="fill: rgb(0, 0, 0);">
<polygon points="0,50 50,100 100,50 50,0"/>
</g></g><g transform="translate(36,108) scale(0.12,0.12)"><g transform="" style="fill: rgb(0, 0, 0);">
<polygon points="0,50 50,100 100,50 50,0"/>
</g></g><g transform="translate(48,108) scale(0.12,0.12)"><g transform="" style="fill: rgb(0, 0, 0);">
<polygon points="0,50 50,100 100,50 50,0"/>
</g></g><g transform="translate(84,108) scale(0.12,0.12)"><g transform="" style="fill: rgb(0, 0, 0);">
<polygon points="0,50 50,100 100,50 50,0"/>
</g></g><g transform="translate(96,108) scale(0.12,0.12)"><g transform="" style="fill: rgb(0, 0, 0);">
<polygon points="0,50 50,100 100,50 50,0"/>
</g></g><g transform="translate(108,108) scale(0.12,0.12)"><g transform="" style="fill: rgb(0, 0, 0);">
<polygon points="0,50 50,100 100,50 50,0"/>
</g></g><g transform="translate(132,108) scale(0.12,0.12)"><g transform="" style="fill: rgb(0, 0, 0);">
<polygon points="0,50 50,100 100,50 50,0"/>
</g></g><g transform="translate(168,108) scale(0.12,0.12)"><g transform="" style="fill: rgb(0, 0, 0);">
<polygon points="0,50 50,100 100,50 50,0"/>
</g></g><g transform="translate(216,108) scale(0.12,0.12)"><g transform="" style="fill: rgb(0, 0, 0);">
<polygon points="0,50 50,100 100,50 50,0"/>
</g></g><g transform="translate(276,108) scale(0.12,0.12)"><g transform="" style="fill: rgb(0, 0, 0);">
<polygon points="0,50 50,100 100,50 50,0"/>
</g></g><g transform="translate(312,108) scale(0.12,0.12)"><g transform="" style="fill: rgb(0, 0, 0);">
<polygon points="0,50 50,100 100,50 50,0"/>
</g></g><g transform="translate(348,108) scale(0.12,0.12)"><g transform="" style="fill: rgb(0, 0, 0);">
<polygon points="0,50 50,100 100,50 50,0"/>
</g></g><g transform="translate(360,108) scale(0.12,0.12)"><g transform="" style="fill: rgb(0, 0, 0);">
<polygon points="0,50 50,100 100,50 50,0"/>
</g></g><g transform="translate(372,108) scale(0.12,0.12)"><g transform="" style="fill: rgb(0, 0, 0);">
<polygon points="0,50 50,100 100,50 50,0"/>
</g></g><g transform="translate(384,108) scale(0.12,0.12)"><g transform="" style="fill: rgb(0, 0, 0);">
<polygon points="0,50 50,100 100,50 50,0"/>
</g></g><g transform="translate(12,120) scale(0.12,0.12)"><g transform="" style="fill: rgb(0, 0, 0);">
<polygon points="0,50 50,100 100,50 50,0"/>
</g></g><g transform="translate(60,120) scale(0.12,0.12)"><g transform="" style="fill: rgb(0, 0, 0);">
<polygon points="0,50 50,100 100,50 50,0"/>
</g></g><g transform="translate(72,120) scale(0.12,0.12)"><g transform="" style="fill: rgb(0, 0, 0);">
<polygon points="0,50 50,100 100,50 50,0"/>
</g></g><g transform="translate(96,120) scale(0.12,0.12)"><g transform="" style="fill: rgb(0, 0, 0);">
<polygon points="0,50 50,100 100,50 50,0"/>
</g></g><g transform="translate(108,120) scale(0.12,0.12)"><g transform="" style="fill: rgb(0, 0, 0);">
<polygon points="0,50 50,100 100,50 50,0"/>
</g></g><g transform="translate(120,120) scale(0.12,0.12)"><g transform="" style="fill: rgb(0, 0, 0);">
<polygon points="0,50 50,100 100,50 50,0"/>
</g></g><g transform="translate(144,120) scale(0.12,0.12)"><g transform="" style="fill: rgb(0, 0, 0);">
<polygon points="0,50 50,100 100,50 50,0"/>
</g></g><g transform="translate(156,120) scale(0.12,0.12)"><g transform="" style="fill: rgb(0, 0, 0);">
<polygon points="0,50 50,100 100,50 50,0"/>
</g></g><g transform="translate(180,120) scale(0.12,0.12)"><g transform="" style="fill: rgb(0, 0, 0);">
<polygon points="0,50 50,100 100,50 50,0"/>
</g></g><g transform="translate(216,120) scale(0.12,0.12)"><g transform="" style="fill: rgb(0, 0, 0);">
<polygon points="0,50 50,100 100,50 50,0"/>
</g></g><g transform="translate(228,120) scale(0.12,0.12)"><g transform="" style="fill: rgb(0, 0, 0);">
<polygon points="0,50 50,100 100,50 50,0"/>
</g></g><g transform="translate(264,120) scale(0.12,0.12)"><g transform="" style="fill: rgb(0, 0, 0);">
<polygon points="0,50 50,100 100,50 50,0"/>
</g></g><g transform="translate(288,120) scale(0.12,0.12)"><g transform="" style="fill: rgb(0, 0, 0);">
<polygon points="0,50 50,100 100,50 50,0"/>
</g></g><g transform="translate(300,120) scale(0.12,0.12)"><g transform="" style="fill: rgb(0, 0, 0);">
<polygon points="0,50 50,100 100,50 50,0"/>
</g></g><g transform="translate(312,120) scale(0.12,0.12)"><g transform="" style="fill: rgb(0, 0, 0);">
<polygon points="0,50 50,100 100,50 50,0"/>
</g></g><g transform="translate(348,120) scale(0.12,0.12)"><g transform="" style="fill: rgb(0, 0, 0);">
<polygon points="0,50 50,100 100,50 50,0"/>
</g></g><g transform="translate(372,120) scale(0.12,0.12)"><g transform="" style="fill: rgb(0, 0, 0);">
<polygon points="0,50 50,100 100,50 50,0"/>
</g></g><g transform="translate(12,132) scale(0.12,0.12)"><g transform="" style="fill: rgb(0, 0, 0);">
<polygon points="0,50 50,100 100,50 50,0"/>
</g></g><g transform="translate(24,132) scale(0.12,0.12)"><g transform="" style="fill: rgb(0, 0, 0);">
<polygon points="0,50 50,100 100,50 50,0"/>
</g></g><g transform="translate(36,132) scale(0.12,0.12)"><g transform="" style="fill: rgb(0, 0, 0);">
<polygon points="0,50 50,100 100,50 50,0"/>
</g></g><g transform="translate(48,132) scale(0.12,0.12)"><g transform="" style="fill: rgb(0, 0, 0);">
<polygon points="0,50 50,100 100,50 50,0"/>
</g></g><g transform="translate(60,132) scale(0.12,0.12)"><g transform="" style="fill: rgb(0, 0, 0);">
<polygon points="0,50 50,100 100,50 50,0"/>
</g></g><g transform="translate(120,132) scale(0.12,0.12)"><g transform="" style="fill: rgb(0, 0, 0);">
<polygon points="0,50 50,100 100,50 50,0"/>
</g></g><g transform="translate(132,132) scale(0.12,0.12)"><g transform="" style="fill: rgb(0, 0, 0);">
<polygon points="0,50 50,100 100,50 50,0"/>
</g></g><g transform="translate(144,132) scale(0.12,0.12)"><g transform="" style="fill: rgb(0, 0, 0);">
<polygon points="0,50 50,100 100,50 50,0"/>
</g></g><g transform="translate(156,132) scale(0.12,0.12)"><g transform="" style="fill: rgb(0, 0, 0);">
<polygon points="0,50 50,100 100,50 50,0"/>
</g></g><g transform="translate(168,132) scale(0.12,0.12)"><g transform="" style="fill: rgb(0, 0, 0);">
<polygon points="0,50 50,100 100,50 50,0"/>
</g></g><g transform="translate(204,132) scale(0.12,0.12)"><g transform="" style="fill: rgb(0, 0, 0);">
<polygon points="0,50 50,100 100,50 50,0"/>
</g></g><g transform="translate(240,132) scale(0.12,0.12)"><g transform="" style="fill: rgb(0, 0, 0);">
<polygon points="0,50 50,100 100,50 50,0"/>
</g></g><g transform="translate(276,132) scale(0.12,0.12)"><g transform="" style="fill: rgb(0, 0, 0);">
<polygon points="0,50 50,100 100,50 50,0"/>
</g></g><g transform="translate(288,132) scale(0.12,0.12)"><g transform="" style="fill: rgb(0, 0, 0);">
<polygon points="0,50 50,100 100,50 50,0"/>
</g></g><g transform="translate(312,132) scale(0.12,0.12)"><g transform="" style="fill: rgb(0, 0, 0);">
<polygon points="0,50 50,100 100,50 50,0"/>
</g></g><g transform="translate(324,132) scale(0.12,0.12)"><g transform="" style="fill: rgb(0, 0, 0);">
<polygon points="0,50 50,100 100,50 50,0"/>
</g></g><g transform="translate(336,132) scale(0.12,0.12)"><g transform="" style="fill: rgb(0, 0, 0);">
<polygon points="0,50 50,100 100,50 50,0"/>
</g></g><g transform="translate(348,132) scale(0.12,0.12)"><g transform="" style="fill: rgb(0, 0, 0);">
<polygon points="0,50 50,100 100,50 50,0"/>
</g></g><g transform="translate(360,132) scale(0.12,0.12)"><g transform="" style="fill: rgb(0, 0, 0);">
<polygon points="0,50 50,100 100,50 50,0"/>
</g></g><g transform="translate(372,132) scale(0.12,0.12)"><g transform="" style="fill: rgb(0, 0, 0);">
<polygon points="0,50 50,100 100,50 50,0"/>
</g></g><g transform="translate(384,132) scale(0.12,0.12)"><g transform="" style="fill: rgb(0, 0, 0);">
<polygon points="0,50 50,100 100,50 50,0"/>
</g></g><g transform="translate(0,144) scale(0.12,0.12)"><g transform="" style="fill: rgb(0, 0, 0);">
<polygon points="0,50 50,100 100,50 50,0"/>
</g></g><g transform="translate(12,144) scale(0.12,0.12)"><g transform="" style="fill: rgb(0, 0, 0);">
<polygon points="0,50 50,100 100,50 50,0"/>
</g></g><g transform="translate(24,144) scale(0.12,0.12)"><g transform="" style="fill: rgb(0, 0, 0);">
<polygon points="0,50 50,100 100,50 50,0"/>
</g></g><g transform="translate(36,144) scale(0.12,0.12)"><g transform="" style="fill: rgb(0, 0, 0);">
<polygon points="0,50 50,100 100,50 50,0"/>
</g></g><g transform="translate(48,144) scale(0.12,0.12)"><g transform="" style="fill: rgb(0, 0, 0);">
<polygon points="0,50 50,100 100,50 50,0"/>
</g></g><g transform="translate(72,144) scale(0.12,0.12)"><g transform="" style="fill: rgb(0, 0, 0);">
<polygon points="0,50 50,100 100,50 50,0"/>
</g></g><g transform="translate(84,144) scale(0.12,0.12)"><g transform="" style="fill: rgb(0, 0, 0);">
<polygon points="0,50 50,100 100,50 50,0"/>
</g></g><g transform="translate(120,144) scale(0.12,0.12)"><g transform="" style="fill: rgb(0, 0, 0);">
<polygon points="0,50 50,100 100,50 50,0"/>
</g></g><g transform="translate(132,144) scale(0.12,0.12)"><g transform="" style="fill: rgb(0, 0, 0);">
<polygon points="0,50 50,100 100,50 50,0"/>
</g></g><g transform="translate(156,144) scale(0.12,0.12)"><g transform="" style="fill: rgb(0, 0, 0);">
<polygon points="0,50 50,100 100,50 50,0"/>
</g></g><g transform="translate(192,144) scale(0.12,0.12)"><g transform="" style="fill: rgb(0, 0, 0);">
<polygon points="0,50 50,100 100,50 50,0"/>
</g></g><g transform="translate(204,144) scale(0.12,0.12)"><g transform="" style="fill: rgb(0, 0, 0);">
<polygon points="0,50 50,100 100,50 50,0"/>
</g></g><g transform="translate(240,144) scale(0.12,0.12)"><g transform="" style="fill: rgb(0, 0, 0);">
<polygon points="0,50 50,100 100,50 50,0"/>
</g></g><g transform="translate(252,144) scale(0.12,0.12)"><g transform="" style="fill: rgb(0, 0, 0);">
<polygon points="0,50 50,100 100,50 50,0"/>
</g></g><g transform="translate(264,144) scale(0.12,0.12)"><g transform="" style="fill: rgb(0, 0, 0);">
<polygon points="0,50 50,100 100,50 50,0"/>
</g></g><g transform="translate(288,144) scale(0.12,0.12)"><g transform="" style="fill: rgb(0, 0, 0);">
<polygon points="0,50 50,100 100,50 50,0"/>
</g></g><g transform="translate(300,144) scale(0.12,0.12)"><g transform="" style="fill: rgb(0, 0, 0);">
<polygon points="0,50 50,100 100,50 50,0"/>
</g></g><g transform="translate(324,144) scale(0.12,0.12)"><g transform="" style="fill: rgb(0, 0, 0);">
<polygon points="0,50 50,100 100,50 50,0"/>
</g></g><g transform="translate(372,144) scale(0.12,0.12)"><g transform="" style="fill: rgb(0, 0, 0);">
<polygon points="0,50 50,100 100,50 50,0"/>
</g></g><g transform="translate(384,144) scale(0.12,0.12)"><g transform="" style="fill: rgb(0, 0, 0);">
<polygon points="0,50 50,100 100,50 50,0"/>
</g></g><g transform="translate(0,156) scale(0.12,0.12)"><g transform="" style="fill: rgb(0, 0, 0);">
<polygon points="0,50 50,100 100,50 50,0"/>
</g></g><g transform="translate(108,156) scale(0.12,0.12)"><g transform="" style="fill: rgb(0, 0, 0);">
<polygon points="0,50 50,100 100,50 50,0"/>
</g></g><g transform="translate(120,156) scale(0.12,0.12)"><g transform="" style="fill: rgb(0, 0, 0);">
<polygon points="0,50 50,100 100,50 50,0"/>
</g></g><g transform="translate(192,156) scale(0.12,0.12)"><g transform="" style="fill: rgb(0, 0, 0);">
<polygon points="0,50 50,100 100,50 50,0"/>
</g></g><g transform="translate(216,156) scale(0.12,0.12)"><g transform="" style="fill: rgb(0, 0, 0);">
<polygon points="0,50 50,100 100,50 50,0"/>
</g></g><g transform="translate(276,156) scale(0.12,0.12)"><g transform="" style="fill: rgb(0, 0, 0);">
<polygon points="0,50 50,100 100,50 50,0"/>
</g></g><g transform="translate(312,156) scale(0.12,0.12)"><g transform="" style="fill: rgb(0, 0, 0);">
<polygon points="0,50 50,100 100,50 50,0"/>
</g></g><g transform="translate(336,156) scale(0.12,0.12)"><g transform="" style="fill: rgb(0, 0, 0);">
<polygon points="0,50 50,100 100,50 50,0"/>
</g></g><g transform="translate(348,156) scale(0.12,0.12)"><g transform="" style="fill: rgb(0, 0, 0);">
<polygon points="0,50 50,100 100,50 50,0"/>
</g></g><g transform="translate(384,156) scale(0.12,0.12)"><g transform="" style="fill: rgb(0, 0, 0);">
<polygon points="0,50 50,100 100,50 50,0"/>
</g></g><g transform="translate(0,168) scale(0.12,0.12)"><g transform="" style="fill: rgb(0, 0, 0);">
<polygon points="0,50 50,100 100,50 50,0"/>
</g></g><g transform="translate(48,168) scale(0.12,0.12)"><g transform="" style="fill: rgb(0, 0, 0);">
<polygon points="0,50 50,100 100,50 50,0"/>
</g></g><g transform="translate(60,168) scale(0.12,0.12)"><g transform="" style="fill: rgb(0, 0, 0);">
<polygon points="0,50 50,100 100,50 50,0"/>
</g></g><g transform="translate(72,168) scale(0.12,0.12)"><g transform="" style="fill: rgb(0, 0, 0);">
<polygon points="0,50 50,100 100,50 50,0"/>
</g></g><g transform="translate(84,168) scale(0.12,0.12)"><g transform="" style="fill: rgb(0, 0, 0);">
<polygon points="0,50 50,100 100,50 50,0"/>
</g></g><g transform="translate(96,168) scale(0.12,0.12)"><g transform="" style="fill: rgb(0, 0, 0);">
<polygon points="0,50 50,100 100,50 50,0"/>
</g></g><g transform="translate(108,168) scale(0.12,0.12)"><g transform="" style="fill: rgb(0, 0, 0);">
<polygon points="0,50 50,100 100,50 50,0"/>
</g></g><g transform="translate(120,168) scale(0.12,0.12)"><g transform="" style="fill: rgb(0, 0, 0);">
<polygon points="0,50 50,100 100,50 50,0"/>
</g></g><g transform="translate(132,168) scale(0.12,0.12)"><g transform="" style="fill: rgb(0, 0, 0);">
<polygon points="0,50 50,100 100,50 50,0"/>
</g></g><g transform="translate(144,168) scale(0.12,0.12)"><g transform="" style="fill: rgb(0, 0, 0);">
<polygon points="0,50 50,100 100,50 50,0"/>
</g></g><g transform="translate(156,168) scale(0.12,0.12)"><g transform="" style="fill: rgb(0, 0, 0);">
<polygon points="0,50 50,100 100,50 50,0"/>
</g></g><g transform="translate(168,168) scale(0.12,0.12)"><g transform="" style="fill: rgb(0, 0, 0);">
<polygon points="0,50 50,100 100,50 50,0"/>
</g></g><g transform="translate(204,168) scale(0.12,0.12)"><g transform="" style="fill: rgb(0, 0, 0);">
<polygon points="0,50 50,100 100,50 50,0"/>
</g></g><g transform="translate(324,168) scale(0.12,0.12)"><g transform="" style="fill: rgb(0, 0, 0);">
<polygon points="0,50 50,100 100,50 50,0"/>
</g></g><g transform="translate(336,168) scale(0.12,0.12)"><g transform="" style="fill: rgb(0, 0, 0);">
<polygon points="0,50 50,100 100,50 50,0"/>
</g></g><g transform="translate(348,168) scale(0.12,0.12)"><g transform="" style="fill: rgb(0, 0, 0);">
<polygon points="0,50 50,100 100,50 50,0"/>
</g></g><g transform="translate(372,168) scale(0.12,0.12)"><g transform="" style="fill: rgb(0, 0, 0);">
<polygon points="0,50 50,100 100,50 50,0"/>
</g></g><g transform="translate(0,180) scale(0.12,0.12)"><g transform="" style="fill: rgb(0, 0, 0);">
<polygon points="0,50 50,100 100,50 50,0"/>
</g></g><g transform="translate(24,180) scale(0.12,0.12)"><g transform="" style="fill: rgb(0, 0, 0);">
<polygon points="0,50 50,100 100,50 50,0"/>
</g></g><g transform="translate(84,180) scale(0.12,0.12)"><g transform="" style="fill: rgb(0, 0, 0);">
<polygon points="0,50 50,100 100,50 50,0"/>
</g></g><g transform="translate(96,180) scale(0.12,0.12)"><g transform="" style="fill: rgb(0, 0, 0);">
<polygon points="0,50 50,100 100,50 50,0"/>
</g></g><g transform="translate(144,180) scale(0.12,0.12)"><g transform="" style="fill: rgb(0, 0, 0);">
<polygon points="0,50 50,100 100,50 50,0"/>
</g></g><g transform="translate(156,180) scale(0.12,0.12)"><g transform="" style="fill: rgb(0, 0, 0);">
<polygon points="0,50 50,100 100,50 50,0"/>
</g></g><g transform="translate(180,180) scale(0.12,0.12)"><g transform="" style="fill: rgb(0, 0, 0);">
<polygon points="0,50 50,100 100,50 50,0"/>
</g></g><g transform="translate(192,180) scale(0.12,0.12)"><g transform="" style="fill: rgb(0, 0, 0);">
<polygon points="0,50 50,100 100,50 50,0"/>
</g></g><g transform="translate(204,180) scale(0.12,0.12)"><g transform="" style="fill: rgb(0, 0, 0);">
<polygon points="0,50 50,100 100,50 50,0"/>
</g></g><g transform="translate(252,180) scale(0.12,0.12)"><g transform="" style="fill: rgb(0, 0, 0);">
<polygon points="0,50 50,100 100,50 50,0"/>
</g></g><g transform="translate(288,180) scale(0.12,0.12)"><g transform="" style="fill: rgb(0, 0, 0);">
<polygon points="0,50 50,100 100,50 50,0"/>
</g></g><g transform="translate(300,180) scale(0.12,0.12)"><g transform="" style="fill: rgb(0, 0, 0);">
<polygon points="0,50 50,100 100,50 50,0"/>
</g></g><g transform="translate(336,180) scale(0.12,0.12)"><g transform="" style="fill: rgb(0, 0, 0);">
<polygon points="0,50 50,100 100,50 50,0"/>
</g></g><g transform="translate(348,180) scale(0.12,0.12)"><g transform="" style="fill: rgb(0, 0, 0);">
<polygon points="0,50 50,100 100,50 50,0"/>
</g></g><g transform="translate(360,180) scale(0.12,0.12)"><g transform="" style="fill: rgb(0, 0, 0);">
<polygon points="0,50 50,100 100,50 50,0"/>
</g></g><g transform="translate(0,192) scale(0.12,0.12)"><g transform="" style="fill: rgb(0, 0, 0);">
<polygon points="0,50 50,100 100,50 50,0"/>
</g></g><g transform="translate(12,192) scale(0.12,0.12)"><g transform="" style="fill: rgb(0, 0, 0);">
<polygon points="0,50 50,100 100,50 50,0"/>
</g></g><g transform="translate(24,192) scale(0.12,0.12)"><g transform="" style="fill: rgb(0, 0, 0);">
<polygon points="0,50 50,100 100,50 50,0"/>
</g></g><g transform="translate(48,192) scale(0.12,0.12)"><g transform="" style="fill: rgb(0, 0, 0);">
<polygon points="0,50 50,100 100,50 50,0"/>
</g></g><g transform="translate(72,192) scale(0.12,0.12)"><g transform="" style="fill: rgb(0, 0, 0);">
<polygon points="0,50 50,100 100,50 50,0"/>
</g></g><g transform="translate(108,192) scale(0.12,0.12)"><g transform="" style="fill: rgb(0, 0, 0);">
<polygon points="0,50 50,100 100,50 50,0"/>
</g></g><g transform="translate(120,192) scale(0.12,0.12)"><g transform="" style="fill: rgb(0, 0, 0);">
<polygon points="0,50 50,100 100,50 50,0"/>
</g></g><g transform="translate(132,192) scale(0.12,0.12)"><g transform="" style="fill: rgb(0, 0, 0);">
<polygon points="0,50 50,100 100,50 50,0"/>
</g></g><g transform="translate(144,192) scale(0.12,0.12)"><g transform="" style="fill: rgb(0, 0, 0);">
<polygon points="0,50 50,100 100,50 50,0"/>
</g></g><g transform="translate(156,192) scale(0.12,0.12)"><g transform="" style="fill: rgb(0, 0, 0);">
<polygon points="0,50 50,100 100,50 50,0"/>
</g></g><g transform="translate(168,192) scale(0.12,0.12)"><g transform="" style="fill: rgb(0, 0, 0);">
<polygon points="0,50 50,100 100,50 50,0"/>
</g></g><g transform="translate(180,192) scale(0.12,0.12)"><g transform="" style="fill: rgb(0, 0, 0);">
<polygon points="0,50 50,100 100,50 50,0"/>
</g></g><g transform="translate(264,192) scale(0.12,0.12)"><g transform="" style="fill: rgb(0, 0, 0);">
<polygon points="0,50 50,100 100,50 50,0"/>
</g></g><g transform="translate(276,192) scale(0.12,0.12)"><g transform="" style="fill: rgb(0, 0, 0);">
<polygon points="0,50 50,100 100,50 50,0"/>
</g></g><g transform="translate(288,192) scale(0.12,0.12)"><g transform="" style="fill: rgb(0, 0, 0);">
<polygon points="0,50 50,100 100,50 50,0"/>
</g></g><g transform="translate(300,192) scale(0.12,0.12)"><g transform="" style="fill: rgb(0, 0, 0);">
<polygon points="0,50 50,100 100,50 50,0"/>
</g></g><g transform="translate(324,192) scale(0.12,0.12)"><g transform="" style="fill: rgb(0, 0, 0);">
<polygon points="0,50 50,100 100,50 50,0"/>
</g></g><g transform="translate(336,192) scale(0.12,0.12)"><g transform="" style="fill: rgb(0, 0, 0);">
<polygon points="0,50 50,100 100,50 50,0"/>
</g></g><g transform="translate(372,192) scale(0.12,0.12)"><g transform="" style="fill: rgb(0, 0, 0);">
<polygon points="0,50 50,100 100,50 50,0"/>
</g></g><g transform="translate(384,192) scale(0.12,0.12)"><g transform="" style="fill: rgb(0, 0, 0);">
<polygon points="0,50 50,100 100,50 50,0"/>
</g></g><g transform="translate(0,204) scale(0.12,0.12)"><g transform="" style="fill: rgb(0, 0, 0);">
<polygon points="0,50 50,100 100,50 50,0"/>
</g></g><g transform="translate(12,204) scale(0.12,0.12)"><g transform="" style="fill: rgb(0, 0, 0);">
<polygon points="0,50 50,100 100,50 50,0"/>
</g></g><g transform="translate(24,204) scale(0.12,0.12)"><g transform="" style="fill: rgb(0, 0, 0);">
<polygon points="0,50 50,100 100,50 50,0"/>
</g></g><g transform="translate(36,204) scale(0.12,0.12)"><g transform="" style="fill: rgb(0, 0, 0);">
<polygon points="0,50 50,100 100,50 50,0"/>
</g></g><g transform="translate(84,204) scale(0.12,0.12)"><g transform="" style="fill: rgb(0, 0, 0);">
<polygon points="0,50 50,100 100,50 50,0"/>
</g></g><g transform="translate(108,204) scale(0.12,0.12)"><g transform="" style="fill: rgb(0, 0, 0);">
<polygon points="0,50 50,100 100,50 50,0"/>
</g></g><g transform="translate(120,204) scale(0.12,0.12)"><g transform="" style="fill: rgb(0, 0, 0);">
<polygon points="0,50 50,100 100,50 50,0"/>
</g></g><g transform="translate(144,204) scale(0.12,0.12)"><g transform="" style="fill: rgb(0, 0, 0);">
<polygon points="0,50 50,100 100,50 50,0"/>
</g></g><g transform="translate(240,204) scale(0.12,0.12)"><g transform="" style="fill: rgb(0, 0, 0);">
<polygon points="0,50 50,100 100,50 50,0"/>
</g></g><g transform="translate(252,204) scale(0.12,0.12)"><g transform="" style="fill: rgb(0, 0, 0);">
<polygon points="0,50 50,100 100,50 50,0"/>
</g></g><g transform="translate(276,204) scale(0.12,0.12)"><g transform="" style="fill: rgb(0, 0, 0);">
<polygon points="0,50 50,100 100,50 50,0"/>
</g></g><g transform="translate(312,204) scale(0.12,0.12)"><g transform="" style="fill: rgb(0, 0, 0);">
<polygon points="0,50 50,100 100,50 50,0"/>
</g></g><g transform="translate(348,204) scale(0.12,0.12)"><g transform="" style="fill: rgb(0, 0, 0);">
<polygon points="0,50 50,100 100,50 50,0"/>
</g></g><g transform="translate(384,204) scale(0.12,0.12)"><g transform="" style="fill: rgb(0, 0, 0);">
<polygon points="0,50 50,100 100,50 50,0"/>
</g></g><g transform="translate(12,216) scale(0.12,0.12)"><g transform="" style="fill: rgb(0, 0, 0);">
<polygon points="0,50 50,100 100,50 50,0"/>
</g></g><g transform="translate(48,216) scale(0.12,0.12)"><g transform="" style="fill: rgb(0, 0, 0);">
<polygon points="0,50 50,100 100,50 50,0"/>
</g></g><g transform="translate(72,216) scale(0.12,0.12)"><g transform="" style="fill: rgb(0, 0, 0);">
<polygon points="0,50 50,100 100,50 50,0"/>
</g></g><g transform="translate(108,216) scale(0.12,0.12)"><g transform="" style="fill: rgb(0, 0, 0);">
<polygon points="0,50 50,100 100,50 50,0"/>
</g></g><g transform="translate(132,216) scale(0.12,0.12)"><g transform="" style="fill: rgb(0, 0, 0);">
<polygon points="0,50 50,100 100,50 50,0"/>
</g></g><g transform="translate(168,216) scale(0.12,0.12)"><g transform="" style="fill: rgb(0, 0, 0);">
<polygon points="0,50 50,100 100,50 50,0"/>
</g></g><g transform="translate(180,216) scale(0.12,0.12)"><g transform="" style="fill: rgb(0, 0, 0);">
<polygon points="0,50 50,100 100,50 50,0"/>
</g></g><g transform="translate(192,216) scale(0.12,0.12)"><g transform="" style="fill: rgb(0, 0, 0);">
<polygon points="0,50 50,100 100,50 50,0"/>
</g></g><g transform="translate(228,216) scale(0.12,0.12)"><g transform="" style="fill: rgb(0, 0, 0);">
<polygon points="0,50 50,100 100,50 50,0"/>
</g></g><g transform="translate(240,216) scale(0.12,0.12)"><g transform="" style="fill: rgb(0, 0, 0);">
<polygon points="0,50 50,100 100,50 50,0"/>
</g></g><g transform="translate(264,216) scale(0.12,0.12)"><g transform="" style="fill: rgb(0, 0, 0);">
<polygon points="0,50 50,100 100,50 50,0"/>
</g></g><g transform="translate(288,216) scale(0.12,0.12)"><g transform="" style="fill: rgb(0, 0, 0);">
<polygon points="0,50 50,100 100,50 50,0"/>
</g></g><g transform="translate(324,216) scale(0.12,0.12)"><g transform="" style="fill: rgb(0, 0, 0);">
<polygon points="0,50 50,100 100,50 50,0"/>
</g></g><g transform="translate(348,216) scale(0.12,0.12)"><g transform="" style="fill: rgb(0, 0, 0);">
<polygon points="0,50 50,100 100,50 50,0"/>
</g></g><g transform="translate(360,216) scale(0.12,0.12)"><g transform="" style="fill: rgb(0, 0, 0);">
<polygon points="0,50 50,100 100,50 50,0"/>
</g></g><g transform="translate(372,216) scale(0.12,0.12)"><g transform="" style="fill: rgb(0, 0, 0);">
<polygon points="0,50 50,100 100,50 50,0"/>
</g></g><g transform="translate(12,228) scale(0.12,0.12)"><g transform="" style="fill: rgb(0, 0, 0);">
<polygon points="0,50 50,100 100,50 50,0"/>
</g></g><g transform="translate(24,228) scale(0.12,0.12)"><g transform="" style="fill: rgb(0, 0, 0);">
<polygon points="0,50 50,100 100,50 50,0"/>
</g></g><g transform="translate(36,228) scale(0.12,0.12)"><g transform="" style="fill: rgb(0, 0, 0);">
<polygon points="0,50 50,100 100,50 50,0"/>
</g></g><g transform="translate(48,228) scale(0.12,0.12)"><g transform="" style="fill: rgb(0, 0, 0);">
<polygon points="0,50 50,100 100,50 50,0"/>
</g></g><g transform="translate(60,228) scale(0.12,0.12)"><g transform="" style="fill: rgb(0, 0, 0);">
<polygon points="0,50 50,100 100,50 50,0"/>
</g></g><g transform="translate(84,228) scale(0.12,0.12)"><g transform="" style="fill: rgb(0, 0, 0);">
<polygon points="0,50 50,100 100,50 50,0"/>
</g></g><g transform="translate(96,228) scale(0.12,0.12)"><g transform="" style="fill: rgb(0, 0, 0);">
<polygon points="0,50 50,100 100,50 50,0"/>
</g></g><g transform="translate(132,228) scale(0.12,0.12)"><g transform="" style="fill: rgb(0, 0, 0);">
<polygon points="0,50 50,100 100,50 50,0"/>
</g></g><g transform="translate(156,228) scale(0.12,0.12)"><g transform="" style="fill: rgb(0, 0, 0);">
<polygon points="0,50 50,100 100,50 50,0"/>
</g></g><g transform="translate(192,228) scale(0.12,0.12)"><g transform="" style="fill: rgb(0, 0, 0);">
<polygon points="0,50 50,100 100,50 50,0"/>
</g></g><g transform="translate(204,228) scale(0.12,0.12)"><g transform="" style="fill: rgb(0, 0, 0);">
<polygon points="0,50 50,100 100,50 50,0"/>
</g></g><g transform="translate(240,228) scale(0.12,0.12)"><g transform="" style="fill: rgb(0, 0, 0);">
<polygon points="0,50 50,100 100,50 50,0"/>
</g></g><g transform="translate(252,228) scale(0.12,0.12)"><g transform="" style="fill: rgb(0, 0, 0);">
<polygon points="0,50 50,100 100,50 50,0"/>
</g></g><g transform="translate(264,228) scale(0.12,0.12)"><g transform="" style="fill: rgb(0, 0, 0);">
<polygon points="0,50 50,100 100,50 50,0"/>
</g></g><g transform="translate(300,228) scale(0.12,0.12)"><g transform="" style="fill: rgb(0, 0, 0);">
<polygon points="0,50 50,100 100,50 50,0"/>
</g></g><g transform="translate(348,228) scale(0.12,0.12)"><g transform="" style="fill: rgb(0, 0, 0);">
<polygon points="0,50 50,100 100,50 50,0"/>
</g></g><g transform="translate(360,228) scale(0.12,0.12)"><g transform="" style="fill: rgb(0, 0, 0);">
<polygon points="0,50 50,100 100,50 50,0"/>
</g></g><g transform="translate(372,228) scale(0.12,0.12)"><g transform="" style="fill: rgb(0, 0, 0);">
<polygon points="0,50 50,100 100,50 50,0"/>
</g></g><g transform="translate(384,228) scale(0.12,0.12)"><g transform="" style="fill: rgb(0, 0, 0);">
<polygon points="0,50 50,100 100,50 50,0"/>
</g></g><g transform="translate(0,240) scale(0.12,0.12)"><g transform="" style="fill: rgb(0, 0, 0);">
<polygon points="0,50 50,100 100,50 50,0"/>
</g></g><g transform="translate(36,240) scale(0.12,0.12)"><g transform="" style="fill: rgb(0, 0, 0);">
<polygon points="0,50 50,100 100,50 50,0"/>
</g></g><g transform="translate(72,240) scale(0.12,0.12)"><g transform="" style="fill: rgb(0, 0, 0);">
<polygon points="0,50 50,100 100,50 50,0"/>
</g></g><g transform="translate(84,240) scale(0.12,0.12)"><g transform="" style="fill: rgb(0, 0, 0);">
<polygon points="0,50 50,100 100,50 50,0"/>
</g></g><g transform="translate(108,240) scale(0.12,0.12)"><g transform="" style="fill: rgb(0, 0, 0);">
<polygon points="0,50 50,100 100,50 50,0"/>
</g></g><g transform="translate(120,240) scale(0.12,0.12)"><g transform="" style="fill: rgb(0, 0, 0);">
<polygon points="0,50 50,100 100,50 50,0"/>
</g></g><g transform="translate(156,240) scale(0.12,0.12)"><g transform="" style="fill: rgb(0, 0, 0);">
<polygon points="0,50 50,100 100,50 50,0"/>
</g></g><g transform="translate(168,240) scale(0.12,0.12)"><g transform="" style="fill: rgb(0, 0, 0);">
<polygon points="0,50 50,100 100,50 50,0"/>
</g></g><g transform="translate(192,240) scale(0.12,0.12)"><g transform="" style="fill: rgb(0, 0, 0);">
<polygon points="0,50 50,100 100,50 50,0"/>
</g></g><g transform="translate(204,240) scale(0.12,0.12)"><g transform="" style="fill: rgb(0, 0, 0);">
<polygon points="0,50 50,100 100,50 50,0"/>
</g></g><g transform="translate(216,240) scale(0.12,0.12)"><g transform="" style="fill: rgb(0, 0, 0);">
<polygon points="0,50 50,100 100,50 50,0"/>
</g></g><g transform="translate(228,240) scale(0.12,0.12)"><g transform="" style="fill: rgb(0, 0, 0);">
<polygon points="0,50 50,100 100,50 50,0"/>
</g></g><g transform="translate(240,240) scale(0.12,0.12)"><g transform="" style="fill: rgb(0, 0, 0);">
<polygon points="0,50 50,100 100,50 50,0"/>
</g></g><g transform="translate(252,240) scale(0.12,0.12)"><g transform="" style="fill: rgb(0, 0, 0);">
<polygon points="0,50 50,100 100,50 50,0"/>
</g></g><g transform="translate(264,240) scale(0.12,0.12)"><g transform="" style="fill: rgb(0, 0, 0);">
<polygon points="0,50 50,100 100,50 50,0"/>
</g></g><g transform="translate(288,240) scale(0.12,0.12)"><g transform="" style="fill: rgb(0, 0, 0);">
<polygon points="0,50 50,100 100,50 50,0"/>
</g></g><g transform="translate(324,240) scale(0.12,0.12)"><g transform="" style="fill: rgb(0, 0, 0);">
<polygon points="0,50 50,100 100,50 50,0"/>
</g></g><g transform="translate(336,240) scale(0.12,0.12)"><g transform="" style="fill: rgb(0, 0, 0);">
<polygon points="0,50 50,100 100,50 50,0"/>
</g></g><g transform="translate(0,252) scale(0.12,0.12)"><g transform="" style="fill: rgb(0, 0, 0);">
<polygon points="0,50 50,100 100,50 50,0"/>
</g></g><g transform="translate(36,252) scale(0.12,0.12)"><g transform="" style="fill: rgb(0, 0, 0);">
<polygon points="0,50 50,100 100,50 50,0"/>
</g></g><g transform="translate(60,252) scale(0.12,0.12)"><g transform="" style="fill: rgb(0, 0, 0);">
<polygon points="0,50 50,100 100,50 50,0"/>
</g></g><g transform="translate(96,252) scale(0.12,0.12)"><g transform="" style="fill: rgb(0, 0, 0);">
<polygon points="0,50 50,100 100,50 50,0"/>
</g></g><g transform="translate(132,252) scale(0.12,0.12)"><g transform="" style="fill: rgb(0, 0, 0);">
<polygon points="0,50 50,100 100,50 50,0"/>
</g></g><g transform="translate(144,252) scale(0.12,0.12)"><g transform="" style="fill: rgb(0, 0, 0);">
<polygon points="0,50 50,100 100,50 50,0"/>
</g></g><g transform="translate(204,252) scale(0.12,0.12)"><g transform="" style="fill: rgb(0, 0, 0);">
<polygon points="0,50 50,100 100,50 50,0"/>
</g></g><g transform="translate(228,252) scale(0.12,0.12)"><g transform="" style="fill: rgb(0, 0, 0);">
<polygon points="0,50 50,100 100,50 50,0"/>
</g></g><g transform="translate(240,252) scale(0.12,0.12)"><g transform="" style="fill: rgb(0, 0, 0);">
<polygon points="0,50 50,100 100,50 50,0"/>
</g></g><g transform="translate(300,252) scale(0.12,0.12)"><g transform="" style="fill: rgb(0, 0, 0);">
<polygon points="0,50 50,100 100,50 50,0"/>
</g></g><g transform="translate(360,252) scale(0.12,0.12)"><g transform="" style="fill: rgb(0, 0, 0);">
<polygon points="0,50 50,100 100,50 50,0"/>
</g></g><g transform="translate(384,252) scale(0.12,0.12)"><g transform="" style="fill: rgb(0, 0, 0);">
<polygon points="0,50 50,100 100,50 50,0"/>
</g></g><g transform="translate(0,264) scale(0.12,0.12)"><g transform="" style="fill: rgb(0, 0, 0);">
<polygon points="0,50 50,100 100,50 50,0"/>
</g></g><g transform="translate(24,264) scale(0.12,0.12)"><g transform="" style="fill: rgb(0, 0, 0);">
<polygon points="0,50 50,100 100,50 50,0"/>
</g></g><g transform="translate(48,264) scale(0.12,0.12)"><g transform="" style="fill: rgb(0, 0, 0);">
<polygon points="0,50 50,100 100,50 50,0"/>
</g></g><g transform="translate(72,264) scale(0.12,0.12)"><g transform="" style="fill: rgb(0, 0, 0);">
<polygon points="0,50 50,100 100,50 50,0"/>
</g></g><g transform="translate(108,264) scale(0.12,0.12)"><g transform="" style="fill: rgb(0, 0, 0);">
<polygon points="0,50 50,100 100,50 50,0"/>
</g></g><g transform="translate(120,264) scale(0.12,0.12)"><g transform="" style="fill: rgb(0, 0, 0);">
<polygon points="0,50 50,100 100,50 50,0"/>
</g></g><g transform="translate(132,264) scale(0.12,0.12)"><g transform="" style="fill: rgb(0, 0, 0);">
<polygon points="0,50 50,100 100,50 50,0"/>
</g></g><g transform="translate(144,264) scale(0.12,0.12)"><g transform="" style="fill: rgb(0, 0, 0);">
<polygon points="0,50 50,100 100,50 50,0"/>
</g></g><g transform="translate(156,264) scale(0.12,0.12)"><g transform="" style="fill: rgb(0, 0, 0);">
<polygon points="0,50 50,100 100,50 50,0"/>
</g></g><g transform="translate(168,264) scale(0.12,0.12)"><g transform="" style="fill: rgb(0, 0, 0);">
<polygon points="0,50 50,100 100,50 50,0"/>
</g></g><g transform="translate(180,264) scale(0.12,0.12)"><g transform="" style="fill: rgb(0, 0, 0);">
<polygon points="0,50 50,100 100,50 50,0"/>
</g></g><g transform="translate(264,264) scale(0.12,0.12)"><g transform="" style="fill: rgb(0, 0, 0);">
<polygon points="0,50 50,100 100,50 50,0"/>
</g></g><g transform="translate(276,264) scale(0.12,0.12)"><g transform="" style="fill: rgb(0, 0, 0);">
<polygon points="0,50 50,100 100,50 50,0"/>
</g></g><g transform="translate(288,264) scale(0.12,0.12)"><g transform="" style="fill: rgb(0, 0, 0);">
<polygon points="0,50 50,100 100,50 50,0"/>
</g></g><g transform="translate(300,264) scale(0.12,0.12)"><g transform="" style="fill: rgb(0, 0, 0);">
<polygon points="0,50 50,100 100,50 50,0"/>
</g></g><g transform="translate(312,264) scale(0.12,0.12)"><g transform="" style="fill: rgb(0, 0, 0);">
<polygon points="0,50 50,100 100,50 50,0"/>
</g></g><g transform="translate(336,264) scale(0.12,0.12)"><g transform="" style="fill: rgb(0, 0, 0);">
<polygon points="0,50 50,100 100,50 50,0"/>
</g></g><g transform="translate(348,264) scale(0.12,0.12)"><g transform="" style="fill: rgb(0, 0, 0);">
<polygon points="0,50 50,100 100,50 50,0"/>
</g></g><g transform="translate(372,264) scale(0.12,0.12)"><g transform="" style="fill: rgb(0, 0, 0);">
<polygon points="0,50 50,100 100,50 50,0"/>
</g></g><g transform="translate(0,276) scale(0.12,0.12)"><g transform="" style="fill: rgb(0, 0, 0);">
<polygon points="0,50 50,100 100,50 50,0"/>
</g></g><g transform="translate(84,276) scale(0.12,0.12)"><g transform="" style="fill: rgb(0, 0, 0);">
<polygon points="0,50 50,100 100,50 50,0"/>
</g></g><g transform="translate(96,276) scale(0.12,0.12)"><g transform="" style="fill: rgb(0, 0, 0);">
<polygon points="0,50 50,100 100,50 50,0"/>
</g></g><g transform="translate(120,276) scale(0.12,0.12)"><g transform="" style="fill: rgb(0, 0, 0);">
<polygon points="0,50 50,100 100,50 50,0"/>
</g></g><g transform="translate(132,276) scale(0.12,0.12)"><g transform="" style="fill: rgb(0, 0, 0);">
<polygon points="0,50 50,100 100,50 50,0"/>
</g></g><g transform="translate(144,276) scale(0.12,0.12)"><g transform="" style="fill: rgb(0, 0, 0);">
<polygon points="0,50 50,100 100,50 50,0"/>
</g></g><g transform="translate(156,276) scale(0.12,0.12)"><g transform="" style="fill: rgb(0, 0, 0);">
<polygon points="0,50 50,100 100,50 50,0"/>
</g></g><g transform="translate(180,276) scale(0.12,0.12)"><g transform="" style="fill: rgb(0, 0, 0);">
<polygon points="0,50 50,100 100,50 50,0"/>
</g></g><g transform="translate(204,276) scale(0.12,0.12)"><g transform="" style="fill: rgb(0, 0, 0);">
<polygon points="0,50 50,100 100,50 50,0"/>
</g></g><g transform="translate(216,276) scale(0.12,0.12)"><g transform="" style="fill: rgb(0, 0, 0);">
<polygon points="0,50 50,100 100,50 50,0"/>
</g></g><g transform="translate(240,276) scale(0.12,0.12)"><g transform="" style="fill: rgb(0, 0, 0);">
<polygon points="0,50 50,100 100,50 50,0"/>
</g></g><g transform="translate(252,276) scale(0.12,0.12)"><g transform="" style="fill: rgb(0, 0, 0);">
<polygon points="0,50 50,100 100,50 50,0"/>
</g></g><g transform="translate(276,276) scale(0.12,0.12)"><g transform="" style="fill: rgb(0, 0, 0);">
<polygon points="0,50 50,100 100,50 50,0"/>
</g></g><g transform="translate(336,276) scale(0.12,0.12)"><g transform="" style="fill: rgb(0, 0, 0);">
<polygon points="0,50 50,100 100,50 50,0"/>
</g></g><g transform="translate(348,276) scale(0.12,0.12)"><g transform="" style="fill: rgb(0, 0, 0);">
<polygon points="0,50 50,100 100,50 50,0"/>
</g></g><g transform="translate(360,276) scale(0.12,0.12)"><g transform="" style="fill: rgb(0, 0, 0);">
<polygon points="0,50 50,100 100,50 50,0"/>
</g></g><g transform="translate(0,288) scale(0.12,0.12)"><g transform="" style="fill: rgb(0, 0, 0);">
<polygon points="0,50 50,100 100,50 50,0"/>
</g></g><g transform="translate(24,288) scale(0.12,0.12)"><g transform="" style="fill: rgb(0, 0, 0);">
<polygon points="0,50 50,100 100,50 50,0"/>
</g></g><g transform="translate(36,288) scale(0.12,0.12)"><g transform="" style="fill: rgb(0, 0, 0);">
<polygon points="0,50 50,100 100,50 50,0"/>
</g></g><g transform="translate(72,288) scale(0.12,0.12)"><g transform="" style="fill: rgb(0, 0, 0);">
<polygon points="0,50 50,100 100,50 50,0"/>
</g></g><g transform="translate(84,288) scale(0.12,0.12)"><g transform="" style="fill: rgb(0, 0, 0);">
<polygon points="0,50 50,100 100,50 50,0"/>
</g></g><g transform="translate(108,288) scale(0.12,0.12)"><g transform="" style="fill: rgb(0, 0, 0);">
<polygon points="0,50 50,100 100,50 50,0"/>
</g></g><g transform="translate(120,288) scale(0.12,0.12)"><g transform="" style="fill: rgb(0, 0, 0);">
<polygon points="0,50 50,100 100,50 50,0"/>
</g></g><g transform="translate(132,288) scale(0.12,0.12)"><g transform="" style="fill: rgb(0, 0, 0);">
<polygon points="0,50 50,100 100,50 50,0"/>
</g></g><g transform="translate(204,288) scale(0.12,0.12)"><g transform="" style="fill: rgb(0, 0, 0);">
<polygon points="0,50 50,100 100,50 50,0"/>
</g></g><g transform="translate(216,288) scale(0.12,0.12)"><g transform="" style="fill: rgb(0, 0, 0);">
<polygon points="0,50 50,100 100,50 50,0"/>
</g></g><g transform="translate(228,288) scale(0.12,0.12)"><g transform="" style="fill: rgb(0, 0, 0);">
<polygon points="0,50 50,100 100,50 50,0"/>
</g></g><g transform="translate(240,288) scale(0.12,0.12)"><g transform="" style="fill: rgb(0, 0, 0);">
<polygon points="0,50 50,100 100,50 50,0"/>
</g></g><g transform="translate(264,288) scale(0.12,0.12)"><g transform="" style="fill: rgb(0, 0, 0);">
<polygon points="0,50 50,100 100,50 50,0"/>
</g></g><g transform="translate(276,288) scale(0.12,0.12)"><g transform="" style="fill: rgb(0, 0, 0);">
<polygon points="0,50 50,100 100,50 50,0"/>
</g></g><g transform="translate(288,288) scale(0.12,0.12)"><g transform="" style="fill: rgb(0, 0, 0);">
<polygon points="0,50 50,100 100,50 50,0"/>
</g></g><g transform="translate(300,288) scale(0.12,0.12)"><g transform="" style="fill: rgb(0, 0, 0);">
<polygon points="0,50 50,100 100,50 50,0"/>
</g></g><g transform="translate(312,288) scale(0.12,0.12)"><g transform="" style="fill: rgb(0, 0, 0);">
<polygon points="0,50 50,100 100,50 50,0"/>
</g></g><g transform="translate(324,288) scale(0.12,0.12)"><g transform="" style="fill: rgb(0, 0, 0);">
<polygon points="0,50 50,100 100,50 50,0"/>
</g></g><g transform="translate(336,288) scale(0.12,0.12)"><g transform="" style="fill: rgb(0, 0, 0);">
<polygon points="0,50 50,100 100,50 50,0"/>
</g></g><g transform="translate(96,300) scale(0.12,0.12)"><g transform="" style="fill: rgb(0, 0, 0);">
<polygon points="0,50 50,100 100,50 50,0"/>
</g></g><g transform="translate(108,300) scale(0.12,0.12)"><g transform="" style="fill: rgb(0, 0, 0);">
<polygon points="0,50 50,100 100,50 50,0"/>
</g></g><g transform="translate(132,300) scale(0.12,0.12)"><g transform="" style="fill: rgb(0, 0, 0);">
<polygon points="0,50 50,100 100,50 50,0"/>
</g></g><g transform="translate(144,300) scale(0.12,0.12)"><g transform="" style="fill: rgb(0, 0, 0);">
<polygon points="0,50 50,100 100,50 50,0"/>
</g></g><g transform="translate(156,300) scale(0.12,0.12)"><g transform="" style="fill: rgb(0, 0, 0);">
<polygon points="0,50 50,100 100,50 50,0"/>
</g></g><g transform="translate(168,300) scale(0.12,0.12)"><g transform="" style="fill: rgb(0, 0, 0);">
<polygon points="0,50 50,100 100,50 50,0"/>
</g></g><g transform="translate(240,300) scale(0.12,0.12)"><g transform="" style="fill: rgb(0, 0, 0);">
<polygon points="0,50 50,100 100,50 50,0"/>
</g></g><g transform="translate(252,300) scale(0.12,0.12)"><g transform="" style="fill: rgb(0, 0, 0);">
<polygon points="0,50 50,100 100,50 50,0"/>
</g></g><g transform="translate(288,300) scale(0.12,0.12)"><g transform="" style="fill: rgb(0, 0, 0);">
<polygon points="0,50 50,100 100,50 50,0"/>
</g></g><g transform="translate(336,300) scale(0.12,0.12)"><g transform="" style="fill: rgb(0, 0, 0);">
<polygon points="0,50 50,100 100,50 50,0"/>
</g></g><g transform="translate(348,300) scale(0.12,0.12)"><g transform="" style="fill: rgb(0, 0, 0);">
<polygon points="0,50 50,100 100,50 50,0"/>
</g></g><g transform="translate(360,300) scale(0.12,0.12)"><g transform="" style="fill: rgb(0, 0, 0);">
<polygon points="0,50 50,100 100,50 50,0"/>
</g></g><g transform="translate(384,300) scale(0.12,0.12)"><g transform="" style="fill: rgb(0, 0, 0);">
<polygon points="0,50 50,100 100,50 50,0"/>
</g></g><g transform="translate(108,312) scale(0.12,0.12)"><g transform="" style="fill: rgb(0, 0, 0);">
<polygon points="0,50 50,100 100,50 50,0"/>
</g></g><g transform="translate(120,312) scale(0.12,0.12)"><g transform="" style="fill: rgb(0, 0, 0);">
<polygon points="0,50 50,100 100,50 50,0"/>
</g></g><g transform="translate(132,312) scale(0.12,0.12)"><g transform="" style="fill: rgb(0, 0, 0);">
<polygon points="0,50 50,100 100,50 50,0"/>
</g></g><g transform="translate(180,312) scale(0.12,0.12)"><g transform="" style="fill: rgb(0, 0, 0);">
<polygon points="0,50 50,100 100,50 50,0"/>
</g></g><g transform="translate(240,312) scale(0.12,0.12)"><g transform="" style="fill: rgb(0, 0, 0);">
<polygon points="0,50 50,100 100,50 50,0"/>
</g></g><g transform="translate(252,312) scale(0.12,0.12)"><g transform="" style="fill: rgb(0, 0, 0);">
<polygon points="0,50 50,100 100,50 50,0"/>
</g></g><g transform="translate(276,312) scale(0.12,0.12)"><g transform="" style="fill: rgb(0, 0, 0);">
<polygon points="0,50 50,100 100,50 50,0"/>
</g></g><g transform="translate(288,312) scale(0.12,0.12)"><g transform="" style="fill: rgb(0, 0, 0);">
<polygon points="0,50 50,100 100,50 50,0"/>
</g></g><g transform="translate(312,312) scale(0.12,0.12)"><g transform="" style="fill: rgb(0, 0, 0);">
<polygon points="0,50 50,100 100,50 50,0"/>
</g></g><g transform="translate(336,312) scale(0.12,0.12)"><g transform="" style="fill: rgb(0, 0, 0);">
<polygon points="0,50 50,100 100,50 50,0"/>
</g></g><g transform="translate(348,312) scale(0.12,0.12)"><g transform="" style="fill: rgb(0, 0, 0);">
<polygon points="0,50 50,100 100,50 50,0"/>
</g></g><g transform="translate(360,312) scale(0.12,0.12)"><g transform="" style="fill: rgb(0, 0, 0);">
<polygon points="0,50 50,100 100,50 50,0"/>
</g></g><g transform="translate(372,312) scale(0.12,0.12)"><g transform="" style="fill: rgb(0, 0, 0);">
<polygon points="0,50 50,100 100,50 50,0"/>
</g></g><g transform="translate(108,324) scale(0.12,0.12)"><g transform="" style="fill: rgb(0, 0, 0);">
<polygon points="0,50 50,100 100,50 50,0"/>
</g></g><g transform="translate(120,324) scale(0.12,0.12)"><g transform="" style="fill: rgb(0, 0, 0);">
<polygon points="0,50 50,100 100,50 50,0"/>
</g></g><g transform="translate(144,324) scale(0.12,0.12)"><g transform="" style="fill: rgb(0, 0, 0);">
<polygon points="0,50 50,100 100,50 50,0"/>
</g></g><g transform="translate(156,324) scale(0.12,0.12)"><g transform="" style="fill: rgb(0, 0, 0);">
<polygon points="0,50 50,100 100,50 50,0"/>
</g></g><g transform="translate(168,324) scale(0.12,0.12)"><g transform="" style="fill: rgb(0, 0, 0);">
<polygon points="0,50 50,100 100,50 50,0"/>
</g></g><g transform="translate(204,324) scale(0.12,0.12)"><g transform="" style="fill: rgb(0, 0, 0);">
<polygon points="0,50 50,100 100,50 50,0"/>
</g></g><g transform="translate(216,324) scale(0.12,0.12)"><g transform="" style="fill: rgb(0, 0, 0);">
<polygon points="0,50 50,100 100,50 50,0"/>
</g></g><g transform="translate(252,324) scale(0.12,0.12)"><g transform="" style="fill: rgb(0, 0, 0);">
<polygon points="0,50 50,100 100,50 50,0"/>
</g></g><g transform="translate(264,324) scale(0.12,0.12)"><g transform="" style="fill: rgb(0, 0, 0);">
<polygon points="0,50 50,100 100,50 50,0"/>
</g></g><g transform="translate(276,324) scale(0.12,0.12)"><g transform="" style="fill: rgb(0, 0, 0);">
<polygon points="0,50 50,100 100,50 50,0"/>
</g></g><g transform="translate(288,324) scale(0.12,0.12)"><g transform="" style="fill: rgb(0, 0, 0);">
<polygon points="0,50 50,100 100,50 50,0"/>
</g></g><g transform="translate(336,324) scale(0.12,0.12)"><g transform="" style="fill: rgb(0, 0, 0);">
<polygon points="0,50 50,100 100,50 50,0"/>
</g></g><g transform="translate(348,324) scale(0.12,0.12)"><g transform="" style="fill: rgb(0, 0, 0);">
<polygon points="0,50 50,100 100,50 50,0"/>
</g></g><g transform="translate(360,324) scale(0.12,0.12)"><g transform="" style="fill: rgb(0, 0, 0);">
<polygon points="0,50 50,100 100,50 50,0"/>
</g></g><g transform="translate(384,324) scale(0.12,0.12)"><g transform="" style="fill: rgb(0, 0, 0);">
<polygon points="0,50 50,100 100,50 50,0"/>
</g></g><g transform="translate(96,336) scale(0.12,0.12)"><g transform="" style="fill: rgb(0, 0, 0);">
<polygon points="0,50 50,100 100,50 50,0"/>
</g></g><g transform="translate(108,336) scale(0.12,0.12)"><g transform="" style="fill: rgb(0, 0, 0);">
<polygon points="0,50 50,100 100,50 50,0"/>
</g></g><g transform="translate(192,336) scale(0.12,0.12)"><g transform="" style="fill: rgb(0, 0, 0);">
<polygon points="0,50 50,100 100,50 50,0"/>
</g></g><g transform="translate(240,336) scale(0.12,0.12)"><g transform="" style="fill: rgb(0, 0, 0);">
<polygon points="0,50 50,100 100,50 50,0"/>
</g></g><g transform="translate(252,336) scale(0.12,0.12)"><g transform="" style="fill: rgb(0, 0, 0);">
<polygon points="0,50 50,100 100,50 50,0"/>
</g></g><g transform="translate(288,336) scale(0.12,0.12)"><g transform="" style="fill: rgb(0, 0, 0);">
<polygon points="0,50 50,100 100,50 50,0"/>
</g></g><g transform="translate(300,336) scale(0.12,0.12)"><g transform="" style="fill: rgb(0, 0, 0);">
<polygon points="0,50 50,100 100,50 50,0"/>
</g></g><g transform="translate(312,336) scale(0.12,0.12)"><g transform="" style="fill: rgb(0, 0, 0);">
<polygon points="0,50 50,100 100,50 50,0"/>
</g></g><g transform="translate(324,336) scale(0.12,0.12)"><g transform="" style="fill: rgb(0, 0, 0);">
<polygon points="0,50 50,100 100,50 50,0"/>
</g></g><g transform="translate(336,336) scale(0.12,0.12)"><g transform="" style="fill: rgb(0, 0, 0);">
<polygon points="0,50 50,100 100,50 50,0"/>
</g></g><g transform="translate(348,336) scale(0.12,0.12)"><g transform="" style="fill: rgb(0, 0, 0);">
<polygon points="0,50 50,100 100,50 50,0"/>
</g></g><g transform="translate(96,348) scale(0.12,0.12)"><g transform="" style="fill: rgb(0, 0, 0);">
<polygon points="0,50 50,100 100,50 50,0"/>
</g></g><g transform="translate(108,348) scale(0.12,0.12)"><g transform="" style="fill: rgb(0, 0, 0);">
<polygon points="0,50 50,100 100,50 50,0"/>
</g></g><g transform="translate(132,348) scale(0.12,0.12)"><g transform="" style="fill: rgb(0, 0, 0);">
<polygon points="0,50 50,100 100,50 50,0"/>
</g></g><g transform="translate(156,348) scale(0.12,0.12)"><g transform="" style="fill: rgb(0, 0, 0);">
<polygon points="0,50 50,100 100,50 50,0"/>
</g></g><g transform="translate(168,348) scale(0.12,0.12)"><g transform="" style="fill: rgb(0, 0, 0);">
<polygon points="0,50 50,100 100,50 50,0"/>
</g></g><g transform="translate(180,348) scale(0.12,0.12)"><g transform="" style="fill: rgb(0, 0, 0);">
<polygon points="0,50 50,100 100,50 50,0"/>
</g></g><g transform="translate(204,348) scale(0.12,0.12)"><g transform="" style="fill: rgb(0, 0, 0);">
<polygon points="0,50 50,100 100,50 50,0"/>
</g></g><g transform="translate(252,348) scale(0.12,0.12)"><g transform="" style="fill: rgb(0, 0, 0);">
<polygon points="0,50 50,100 100,50 50,0"/>
</g></g><g transform="translate(264,348) scale(0.12,0.12)"><g transform="" style="fill: rgb(0, 0, 0);">
<polygon points="0,50 50,100 100,50 50,0"/>
</g></g><g transform="translate(288,348) scale(0.12,0.12)"><g transform="" style="fill: rgb(0, 0, 0);">
<polygon points="0,50 50,100 100,50 50,0"/>
</g></g><g transform="translate(300,348) scale(0.12,0.12)"><g transform="" style="fill: rgb(0, 0, 0);">
<polygon points="0,50 50,100 100,50 50,0"/>
</g></g><g transform="translate(324,348) scale(0.12,0.12)"><g transform="" style="fill: rgb(0, 0, 0);">
<polygon points="0,50 50,100 100,50 50,0"/>
</g></g><g transform="translate(336,348) scale(0.12,0.12)"><g transform="" style="fill: rgb(0, 0, 0);">
<polygon points="0,50 50,100 100,50 50,0"/>
</g></g><g transform="translate(348,348) scale(0.12,0.12)"><g transform="" style="fill: rgb(0, 0, 0);">
<polygon points="0,50 50,100 100,50 50,0"/>
</g></g><g transform="translate(372,348) scale(0.12,0.12)"><g transform="" style="fill: rgb(0, 0, 0);">
<polygon points="0,50 50,100 100,50 50,0"/>
</g></g><g transform="translate(96,360) scale(0.12,0.12)"><g transform="" style="fill: rgb(0, 0, 0);">
<polygon points="0,50 50,100 100,50 50,0"/>
</g></g><g transform="translate(108,360) scale(0.12,0.12)"><g transform="" style="fill: rgb(0, 0, 0);">
<polygon points="0,50 50,100 100,50 50,0"/>
</g></g><g transform="translate(132,360) scale(0.12,0.12)"><g transform="" style="fill: rgb(0, 0, 0);">
<polygon points="0,50 50,100 100,50 50,0"/>
</g></g><g transform="translate(144,360) scale(0.12,0.12)"><g transform="" style="fill: rgb(0, 0, 0);">
<polygon points="0,50 50,100 100,50 50,0"/>
</g></g><g transform="translate(216,360) scale(0.12,0.12)"><g transform="" style="fill: rgb(0, 0, 0);">
<polygon points="0,50 50,100 100,50 50,0"/>
</g></g><g transform="translate(228,360) scale(0.12,0.12)"><g transform="" style="fill: rgb(0, 0, 0);">
<polygon points="0,50 50,100 100,50 50,0"/>
</g></g><g transform="translate(240,360) scale(0.12,0.12)"><g transform="" style="fill: rgb(0, 0, 0);">
<polygon points="0,50 50,100 100,50 50,0"/>
</g></g><g transform="translate(264,360) scale(0.12,0.12)"><g transform="" style="fill: rgb(0, 0, 0);">
<polygon points="0,50 50,100 100,50 50,0"/>
</g></g><g transform="translate(276,360) scale(0.12,0.12)"><g transform="" style="fill: rgb(0, 0, 0);">
<polygon points="0,50 50,100 100,50 50,0"/>
</g></g><g transform="translate(300,360) scale(0.12,0.12)"><g transform="" style="fill: rgb(0, 0, 0);">
<polygon points="0,50 50,100 100,50 50,0"/>
</g></g><g transform="translate(312,360) scale(0.12,0.12)"><g transform="" style="fill: rgb(0, 0, 0);">
<polygon points="0,50 50,100 100,50 50,0"/>
</g></g><g transform="translate(348,360) scale(0.12,0.12)"><g transform="" style="fill: rgb(0, 0, 0);">
<polygon points="0,50 50,100 100,50 50,0"/>
</g></g><g transform="translate(360,360) scale(0.12,0.12)"><g transform="" style="fill: rgb(0, 0, 0);">
<polygon points="0,50 50,100 100,50 50,0"/>
</g></g><g transform="translate(132,372) scale(0.12,0.12)"><g transform="" style="fill: rgb(0, 0, 0);">
<polygon points="0,50 50,100 100,50 50,0"/>
</g></g><g transform="translate(144,372) scale(0.12,0.12)"><g transform="" style="fill: rgb(0, 0, 0);">
<polygon points="0,50 50,100 100,50 50,0"/>
</g></g><g transform="translate(156,372) scale(0.12,0.12)"><g transform="" style="fill: rgb(0, 0, 0);">
<polygon points="0,50 50,100 100,50 50,0"/>
</g></g><g transform="translate(180,372) scale(0.12,0.12)"><g transform="" style="fill: rgb(0, 0, 0);">
<polygon points="0,50 50,100 100,50 50,0"/>
</g></g><g transform="translate(264,372) scale(0.12,0.12)"><g transform="" style="fill: rgb(0, 0, 0);">
<polygon points="0,50 50,100 100,50 50,0"/>
</g></g><g transform="translate(312,372) scale(0.12,0.12)"><g transform="" style="fill: rgb(0, 0, 0);">
<polygon points="0,50 50,100 100,50 50,0"/>
</g></g><g transform="translate(360,372) scale(0.12,0.12)"><g transform="" style="fill: rgb(0, 0, 0);">
<polygon points="0,50 50,100 100,50 50,0"/>
</g></g><g transform="translate(108,384) scale(0.12,0.12)"><g transform="" style="fill: rgb(0, 0, 0);">
<polygon points="0,50 50,100 100,50 50,0"/>
</g></g><g transform="translate(120,384) scale(0.12,0.12)"><g transform="" style="fill: rgb(0, 0, 0);">
<polygon points="0,50 50,100 100,50 50,0"/>
</g></g><g transform="translate(132,384) scale(0.12,0.12)"><g transform="" style="fill: rgb(0, 0, 0);">
<polygon points="0,50 50,100 100,50 50,0"/>
</g></g><g transform="translate(156,384) scale(0.12,0.12)"><g transform="" style="fill: rgb(0, 0, 0);">
<polygon points="0,50 50,100 100,50 50,0"/>
</g></g><g transform="translate(168,384) scale(0.12,0.12)"><g transform="" style="fill: rgb(0, 0, 0);">
<polygon points="0,50 50,100 100,50 50,0"/>
</g></g><g transform="translate(192,384) scale(0.12,0.12)"><g transform="" style="fill: rgb(0, 0, 0);">
<polygon points="0,50 50,100 100,50 50,0"/>
</g></g><g transform="translate(216,384) scale(0.12,0.12)"><g transform="" style="fill: rgb(0, 0, 0);">
<polygon points="0,50 50,100 100,50 50,0"/>
</g></g><g transform="translate(228,384) scale(0.12,0.12)"><g transform="" style="fill: rgb(0, 0, 0);">
<polygon points="0,50 50,100 100,50 50,0"/>
</g></g><g transform="translate(240,384) scale(0.12,0.12)"><g transform="" style="fill: rgb(0, 0, 0);">
<polygon points="0,50 50,100 100,50 50,0"/>
</g></g><g transform="translate(252,384) scale(0.12,0.12)"><g transform="" style="fill: rgb(0, 0, 0);">
<polygon points="0,50 50,100 100,50 50,0"/>
</g></g><g transform="translate(276,384) scale(0.12,0.12)"><g transform="" style="fill: rgb(0, 0, 0);">
<polygon points="0,50 50,100 100,50 50,0"/>
</g></g><g transform="translate(288,384) scale(0.12,0.12)"><g transform="" style="fill: rgb(0, 0, 0);">
<polygon points="0,50 50,100 100,50 50,0"/>
</g></g><g transform="translate(300,384) scale(0.12,0.12)"><g transform="" style="fill: rgb(0, 0, 0);">
<polygon points="0,50 50,100 100,50 50,0"/>
</g></g><g transform="translate(312,384) scale(0.12,0.12)"><g transform="" style="fill: rgb(0, 0, 0);">
<polygon points="0,50 50,100 100,50 50,0"/>
</g></g><g transform="translate(324,384) scale(0.12,0.12)"><g transform="" style="fill: rgb(0, 0, 0);">
<polygon points="0,50 50,100 100,50 50,0"/>
</g></g><g transform="translate(360,384) scale(0.12,0.12)"><g transform="" style="fill: rgb(0, 0, 0);">
<polygon points="0,50 50,100 100,50 50,0"/>
</g></g><g transform="translate(372,384) scale(0.12,0.12)"><g transform="" style="fill: rgb(0, 0, 0);">
<polygon points="0,50 50,100 100,50 50,0"/>
</g></g><g transform="translate(0,0) scale(0.84, 0.84)"><g transform=" translate(100, 0) scale(-1,1) " style="fill: rgb(0, 0, 0);">
<g>
	<path style="fill:none;" d="M85,66.221V33.75C85,23.411,76.414,15,65.859,15H34.14C23.586,15,15,23.411,15,33.75v51.246
		l50.855-0.016C76.414,84.98,85,76.564,85,66.221z"/>
	<path d="M100,66.221V33.75C100,15.141,84.68,0,65.859,0H34.14C15.32,0,0,15.141,0,33.75V100l65.859-0.02
		C84.68,99.98,100,84.84,100,66.221z M85,66.221c0,10.344-8.586,18.76-19.145,18.76L15,84.996V33.75C15,23.411,23.586,15,34.14,15
		h31.719C76.414,15,85,23.411,85,33.75V66.221z"/>
</g>
</g></g><g transform="translate(312,0) scale(0.84, 0.84)"><g transform="" style="fill: rgb(0, 0, 0);">
<g>
	<path style="fill:none;" d="M85,66.221V33.75C85,23.411,76.414,15,65.859,15H34.14C23.586,15,15,23.411,15,33.75v51.246
		l50.855-0.016C76.414,84.98,85,76.564,85,66.221z"/>
	<path d="M100,66.221V33.75C100,15.141,84.68,0,65.859,0H34.14C15.32,0,0,15.141,0,33.75V100l65.859-0.02
		C84.68,99.98,100,84.84,100,66.221z M85,66.221c0,10.344-8.586,18.76-19.145,18.76L15,84.996V33.75C15,23.411,23.586,15,34.14,15
		h31.719C76.414,15,85,23.411,85,33.75V66.221z"/>
</g>
</g></g><g transform="translate(0,312) scale(0.84, 0.84)"><g transform=" translate(100, 0) scale(-1,1)  translate(0,100) scale(1,-1) " style="fill: rgb(0, 0, 0);">
<g>
	<path style="fill:none;" d="M85,66.221V33.75C85,23.411,76.414,15,65.859,15H34.14C23.586,15,15,23.411,15,33.75v51.246
		l50.855-0.016C76.414,84.98,85,76.564,85,66.221z"/>
	<path d="M100,66.221V33.75C100,15.141,84.68,0,65.859,0H34.14C15.32,0,0,15.141,0,33.75V100l65.859-0.02
		C84.68,99.98,100,84.84,100,66.221z M85,66.221c0,10.344-8.586,18.76-19.145,18.76L15,84.996V33.75C15,23.411,23.586,15,34.14,15
		h31.719C76.414,15,85,23.411,85,33.75V66.221z"/>
</g>
</g></g><g transform="translate(24,24) scale(0.36, 0.36)"><g transform="" style="fill: rgb(0, 0, 0);">
<rect width="100" height="100"/>
</g></g><g transform="translate(336,24) scale(0.36, 0.36)"><g transform="" style="fill: rgb(0, 0, 0);">
<rect width="100" height="100"/>
</g></g><g transform="translate(24,336) scale(0.36, 0.36)"><g transform="" style="fill: rgb(0, 0, 0);">
<rect width="100" height="100"/>
</g></g><g transform="translate(132,132) scale(0.132,0.132)" width="132" height="132"><svg
   xmlns:dc="http://purl.org/dc/elements/1.1/"
   xmlns:cc="http://creativecommons.org/ns#"
   xmlns:rdf="http://www.w3.org/1999/02/22-rdf-syntax-ns#"
   xmlns:svg="http://www.w3.org/2000/svg"
   xmlns="http://www.w3.org/2000/svg"
   version="1.1"
   width="1000"
   height="1000"
   viewBox="0 0 1000 1000"
   id="svg2">
  <metadata
     id="metadata14">
    <rdf:RDF>
      <cc:Work
         rdf:about="">
        <dc:format>image/svg+xml</dc:format>
        <dc:type
           rdf:resource="http://purl.org/dc/dcmitype/StillImage" />
        <dc:title></dc:title>
      </cc:Work>
    </rdf:RDF>
  </metadata>
  <defs
     id="defs12" />
  <g
     transform="matrix(15.626664,0,0,15.624841,0.03845038,-0.0375672)"
     id="g4">
    <path
       d="M 63.033,39.744 C 58.759,56.887 41.396,67.32 24.251,63.045 7.113,58.771 -3.32,41.407 0.956,24.265 5.228,7.12 22.591,-3.314 39.731,0.96 56.875,5.234 67.307,22.6 63.033,39.744 z"
       id="path6"
       style="fill:#f7931a" />
    <path
       d="M 46.103,27.444 C 46.74,23.186 43.498,20.897 39.065,19.37 l 1.438,-5.768 -3.511,-0.875 -1.4,5.616 c -0.923,-0.23 -1.871,-0.447 -2.813,-0.662 l 1.41,-5.653 -3.509,-0.875 -1.439,5.766 c -0.764,-0.174 -1.514,-0.346 -2.242,-0.527 l 0.004,-0.018 -4.842,-1.209 -0.934,3.75 c 0,0 2.605,0.597 2.55,0.634 1.422,0.355 1.679,1.296 1.636,2.042 l -1.638,6.571 c 0.098,0.025 0.225,0.061 0.365,0.117 -0.117,-0.029 -0.242,-0.061 -0.371,-0.092 l -2.296,9.205 c -0.174,0.432 -0.615,1.08 -1.609,0.834 0.035,0.051 -2.552,-0.637 -2.552,-0.637 l -1.743,4.019 4.569,1.139 c 0.85,0.213 1.683,0.436 2.503,0.646 l -1.453,5.834 3.507,0.875 1.439,-5.772 c 0.958,0.26 1.888,0.5 2.798,0.726 l -1.434,5.745 3.511,0.875 1.453,-5.823 c 5.987,1.133 10.489,0.676 12.384,-4.739 1.527,-4.36 -0.076,-6.875 -3.226,-8.515 2.294,-0.529 4.022,-2.038 4.483,-5.155 z m -8.022,11.249 c -1.085,4.36 -8.426,2.003 -10.806,1.412 l 1.928,-7.729 c 2.38,0.594 10.012,1.77 8.878,6.317 z m 1.086,-11.312 c -0.99,3.966 -7.1,1.951 -9.082,1.457 l 1.748,-7.01 c 1.982,0.494 8.365,1.416 7.334,5.553 z"
       id="path8"
       style="fill:#ffffff" />
  </g>
</svg>
</g></g></svg>